<svg width="212" height="58" viewBox="0 0 212 58" fill="none" xmlns="http://www.w3.org/2000/svg">
<g filter="url(#filter0_d_634_84)">
<path d="M38.1136 28.5455C38.1136 32.3523 37.392 35.5909 35.9489 38.2614C34.517 40.9318 32.5625 42.9716 30.0852 44.3807C27.6193 45.7784 24.8466 46.4773 21.767 46.4773C18.6648 46.4773 15.8807 45.7727 13.4148 44.3636C10.9489 42.9545 9 40.9148 7.56818 38.2443C6.13636 35.5739 5.42045 32.3409 5.42045 28.5455C5.42045 24.7386 6.13636 21.5 7.56818 18.8295C9 16.1591 10.9489 14.125 13.4148 12.7273C15.8807 11.3182 18.6648 10.6136 21.767 10.6136C24.8466 10.6136 27.6193 11.3182 30.0852 12.7273C32.5625 14.125 34.517 16.1591 35.9489 18.8295C37.392 21.5 38.1136 24.7386 38.1136 28.5455ZM30.6307 28.5455C30.6307 26.0795 30.2614 24 29.5227 22.3068C28.7955 20.6136 27.767 19.3295 26.4375 18.4545C25.108 17.5795 23.5511 17.142 21.767 17.142C19.983 17.142 18.4261 17.5795 17.0966 18.4545C15.767 19.3295 14.733 20.6136 13.9943 22.3068C13.267 24 12.9034 26.0795 12.9034 28.5455C12.9034 31.0114 13.267 33.0909 13.9943 34.7841C14.733 36.4773 15.767 37.7614 17.0966 38.6364C18.4261 39.5114 19.983 39.9489 21.767 39.9489C23.5511 39.9489 25.108 39.5114 26.4375 38.6364C27.767 37.7614 28.7955 36.4773 29.5227 34.7841C30.2614 33.0909 30.6307 31.0114 30.6307 28.5455ZM54.0189 25.648C54.9575 25.648 55.9389 25.7333 56.9629 25.904C57.9869 26.0533 58.7869 26.256 59.3629 26.512C59.5549 26.576 59.6722 26.6613 59.7149 26.768C59.7789 26.8533 59.8322 27.0133 59.8749 27.248L60.2589 31.696C60.2589 31.76 60.2055 31.8027 60.0989 31.824C59.9922 31.8453 59.9282 31.8133 59.9069 31.728C59.1815 30.0427 58.2109 28.7413 56.9949 27.824C55.7789 26.9067 54.3709 26.448 52.7709 26.448C50.6589 26.448 49.0269 27.2267 47.8749 28.784C46.7229 30.3413 46.1469 32.432 46.1469 35.056C46.1469 37.0187 46.4562 38.8107 47.0749 40.432C47.7149 42.0533 48.6002 43.344 49.7309 44.304C50.8829 45.2427 52.1842 45.712 53.6349 45.712C55.0002 45.712 56.2162 45.264 57.2829 44.368C58.3709 43.4507 59.3415 42.064 60.1949 40.208C60.2162 40.1227 60.2802 40.0907 60.3869 40.112C60.5149 40.1333 60.5789 40.176 60.5789 40.24L60.0989 44.592C60.0562 44.848 60.0029 45.0187 59.9389 45.104C59.8962 45.168 59.7789 45.2427 59.5869 45.328C57.6882 46.032 55.7362 46.384 53.7309 46.384C51.1282 46.384 48.9522 45.872 47.2029 44.848C45.4535 43.8027 44.1629 42.4907 43.3309 40.912C42.5202 39.312 42.1149 37.648 42.1149 35.92C42.1149 33.8933 42.6589 32.1013 43.7469 30.544C44.8562 28.9867 46.3175 27.7813 48.1309 26.928C49.9655 26.0747 51.9282 25.648 54.0189 25.648ZM69.0571 26.736C66.5185 26.736 64.6945 28.3893 63.5851 31.696C63.5638 31.76 63.4998 31.792 63.3931 31.792C63.2865 31.7707 63.2331 31.728 63.2331 31.664C63.3185 30.8107 63.4145 29.712 63.5211 28.368C63.6278 27.0027 63.6811 25.9787 63.6811 25.296C63.6811 25.1893 63.7345 25.136 63.8411 25.136C63.9691 25.136 64.0331 25.1893 64.0331 25.296C64.0331 25.7653 64.6411 26 65.8571 26C67.6918 26.064 69.8358 26.096 72.2891 26.096C73.5478 26.096 74.8811 26.0747 76.2891 26.032L78.4651 26C79.2758 26 79.8625 25.9467 80.2251 25.84C80.6091 25.7333 80.8545 25.52 80.9611 25.2C80.9825 25.1147 81.0465 25.072 81.1531 25.072C81.2811 25.072 81.3451 25.1147 81.3451 25.2C81.2811 25.84 81.2065 26.864 81.1211 28.272C81.0571 29.68 81.0251 30.8107 81.0251 31.664C81.0251 31.728 80.9718 31.76 80.8651 31.76C80.7585 31.76 80.6945 31.728 80.6731 31.664C80.3531 30.0213 79.7558 28.7947 78.8811 27.984C78.0065 27.152 76.9291 26.736 75.6491 26.736C75.0305 26.736 74.6145 26.8747 74.4011 27.152C74.2091 27.408 74.1131 27.9093 74.1131 28.656V43.408C74.1131 44.0693 74.1771 44.5493 74.3051 44.848C74.4331 45.1467 74.6785 45.3493 75.0411 45.456C75.4038 45.5627 75.9798 45.616 76.7691 45.616C76.8331 45.616 76.8651 45.68 76.8651 45.808C76.8651 45.936 76.8331 46 76.7691 46C76.0011 46 75.3931 45.9893 74.9451 45.968L72.2891 45.936L69.6971 45.968C69.2491 45.9893 68.6305 46 67.8411 46C67.7771 46 67.7451 45.936 67.7451 45.808C67.7451 45.68 67.7771 45.616 67.8411 45.616C68.6091 45.616 69.1745 45.5627 69.5371 45.456C69.9211 45.3493 70.1771 45.1467 70.3051 44.848C70.4545 44.528 70.5291 44.048 70.5291 43.408V28.592C70.5291 27.8667 70.4331 27.376 70.2411 27.12C70.0491 26.864 69.6545 26.736 69.0571 26.736ZM103.21 45.616C103.316 45.616 103.37 45.68 103.37 45.808C103.37 45.936 103.316 46 103.21 46C102.783 46 102.122 45.9787 101.226 45.936C100.287 45.8933 99.615 45.872 99.2096 45.872C98.6763 45.872 98.0256 45.8933 97.2576 45.936C96.5323 45.9787 95.9563 46 95.5296 46C95.4443 46 95.4016 45.936 95.4016 45.808C95.4016 45.68 95.4443 45.616 95.5296 45.616C96.0843 45.616 96.479 45.5627 96.7136 45.456C96.9696 45.328 97.0976 45.1147 97.0976 44.816C97.0976 44.4533 96.8843 43.8453 96.4576 42.992L93.1296 36.432H87.4336L85.1616 41.456C84.8843 42.0747 84.7456 42.6507 84.7456 43.184C84.7456 43.952 85.0123 44.5493 85.5456 44.976C86.1003 45.4027 86.8363 45.616 87.7536 45.616C87.8603 45.616 87.9136 45.68 87.9136 45.808C87.9136 45.936 87.8603 46 87.7536 46C87.3696 46 86.815 45.9787 86.0896 45.936C85.279 45.8933 84.575 45.872 83.9776 45.872C83.4016 45.872 82.7083 45.8933 81.8976 45.936C81.1723 45.9787 80.5856 46 80.1376 46C80.0523 46 80.0096 45.936 80.0096 45.808C80.0096 45.68 80.0523 45.616 80.1376 45.616C80.735 45.616 81.2363 45.4987 81.6416 45.264C82.047 45.008 82.4523 44.5707 82.8576 43.952C83.263 43.312 83.743 42.3733 84.2976 41.136L91.2416 25.872C91.2843 25.808 91.3803 25.776 91.5296 25.776C91.7003 25.776 91.7963 25.808 91.8176 25.872L99.8176 41.616C100.564 43.1307 101.183 44.176 101.674 44.752C102.164 45.328 102.676 45.616 103.21 45.616ZM87.8496 35.536H92.6816L90.1216 30.48L87.8496 35.536ZM116.269 25.648C117.208 25.648 118.189 25.7333 119.213 25.904C120.237 26.0533 121.037 26.256 121.613 26.512C121.805 26.576 121.922 26.6613 121.965 26.768C122.029 26.8533 122.082 27.0133 122.125 27.248L122.509 31.696C122.509 31.76 122.456 31.8027 122.349 31.824C122.242 31.8453 122.178 31.8133 122.157 31.728C121.432 30.0427 120.461 28.7413 119.245 27.824C118.029 26.9067 116.621 26.448 115.021 26.448C112.909 26.448 111.277 27.2267 110.125 28.784C108.973 30.3413 108.397 32.432 108.397 35.056C108.397 37.0187 108.706 38.8107 109.325 40.432C109.965 42.0533 110.85 43.344 111.981 44.304C113.133 45.2427 114.434 45.712 115.885 45.712C117.25 45.712 118.466 45.264 119.533 44.368C120.621 43.4507 121.592 42.064 122.445 40.208C122.466 40.1227 122.53 40.0907 122.637 40.112C122.765 40.1333 122.829 40.176 122.829 40.24L122.349 44.592C122.306 44.848 122.253 45.0187 122.189 45.104C122.146 45.168 122.029 45.2427 121.837 45.328C119.938 46.032 117.986 46.384 115.981 46.384C113.378 46.384 111.202 45.872 109.453 44.848C107.704 43.8027 106.413 42.4907 105.581 40.912C104.77 39.312 104.365 37.648 104.365 35.92C104.365 33.8933 104.909 32.1013 105.997 30.544C107.106 28.9867 108.568 27.7813 110.381 26.928C112.216 26.0747 114.178 25.648 116.269 25.648ZM147.627 45.616C147.691 45.616 147.723 45.68 147.723 45.808C147.723 45.936 147.691 46 147.627 46C146.88 46 146.283 45.9893 145.835 45.968L143.371 45.936L140.491 45.968C140.107 45.9893 139.584 46 138.923 46C138.859 46 138.827 45.936 138.827 45.808C138.827 45.68 138.859 45.616 138.923 45.616C139.712 45.616 140.288 45.5627 140.651 45.456C141.014 45.3493 141.259 45.1467 141.387 44.848C141.515 44.5493 141.579 44.0693 141.579 43.408V36.048H131.243V43.408C131.243 44.048 131.307 44.528 131.435 44.848C131.563 45.1467 131.808 45.3493 132.171 45.456C132.534 45.5627 133.11 45.616 133.899 45.616C133.942 45.616 133.963 45.68 133.963 45.808C133.963 45.936 133.942 46 133.899 46C133.152 46 132.555 45.9893 132.107 45.968L129.323 45.936L126.923 45.968C126.496 45.9893 125.91 46 125.163 46C125.12 46 125.099 45.936 125.099 45.808C125.099 45.68 125.12 45.616 125.163 45.616C125.91 45.616 126.454 45.5627 126.795 45.456C127.136 45.3493 127.371 45.1467 127.499 44.848C127.627 44.528 127.691 44.048 127.691 43.408V28.592C127.691 27.952 127.627 27.4827 127.499 27.184C127.371 26.8853 127.136 26.6827 126.795 26.576C126.475 26.448 125.952 26.384 125.227 26.384C125.163 26.384 125.131 26.32 125.131 26.192C125.131 26.064 125.163 26 125.227 26L126.955 26.032C127.936 26.0747 128.726 26.096 129.323 26.096C130.134 26.096 131.072 26.0747 132.139 26.032L133.899 26C133.942 26 133.963 26.064 133.963 26.192C133.963 26.32 133.942 26.384 133.899 26.384C133.131 26.384 132.566 26.448 132.203 26.576C131.84 26.704 131.584 26.928 131.435 27.248C131.307 27.5467 131.243 28.016 131.243 28.656V35.152H141.579V28.656C141.579 28.016 141.515 27.5467 141.387 27.248C141.259 26.928 141.014 26.704 140.651 26.576C140.288 26.448 139.712 26.384 138.923 26.384C138.859 26.384 138.827 26.32 138.827 26.192C138.827 26.064 138.859 26 138.923 26L140.491 26.032C141.558 26.0747 142.518 26.096 143.371 26.096C143.947 26.096 144.768 26.0747 145.835 26.032L147.627 26C147.691 26 147.723 26.064 147.723 26.192C147.723 26.32 147.691 26.384 147.627 26.384C146.902 26.384 146.358 26.448 145.995 26.576C145.654 26.6827 145.419 26.8853 145.291 27.184C145.184 27.4827 145.131 27.952 145.131 28.592V43.408C145.131 44.048 145.184 44.528 145.291 44.848C145.419 45.1467 145.654 45.3493 145.995 45.456C146.336 45.5627 146.88 45.616 147.627 45.616ZM171.585 45.616C171.691 45.616 171.745 45.68 171.745 45.808C171.745 45.936 171.691 46 171.585 46C171.158 46 170.497 45.9787 169.601 45.936C168.662 45.8933 167.99 45.872 167.585 45.872C167.051 45.872 166.401 45.8933 165.633 45.936C164.907 45.9787 164.331 46 163.905 46C163.819 46 163.777 45.936 163.777 45.808C163.777 45.68 163.819 45.616 163.905 45.616C164.459 45.616 164.854 45.5627 165.089 45.456C165.345 45.328 165.473 45.1147 165.473 44.816C165.473 44.4533 165.259 43.8453 164.833 42.992L161.505 36.432H155.809L153.537 41.456C153.259 42.0747 153.121 42.6507 153.121 43.184C153.121 43.952 153.387 44.5493 153.921 44.976C154.475 45.4027 155.211 45.616 156.129 45.616C156.235 45.616 156.289 45.68 156.289 45.808C156.289 45.936 156.235 46 156.129 46C155.745 46 155.19 45.9787 154.465 45.936C153.654 45.8933 152.95 45.872 152.353 45.872C151.777 45.872 151.083 45.8933 150.273 45.936C149.547 45.9787 148.961 46 148.513 46C148.427 46 148.385 45.936 148.385 45.808C148.385 45.68 148.427 45.616 148.513 45.616C149.11 45.616 149.611 45.4987 150.017 45.264C150.422 45.008 150.827 44.5707 151.233 43.952C151.638 43.312 152.118 42.3733 152.673 41.136L159.617 25.872C159.659 25.808 159.755 25.776 159.905 25.776C160.075 25.776 160.171 25.808 160.193 25.872L168.193 41.616C168.939 43.1307 169.558 44.176 170.049 44.752C170.539 45.328 171.051 45.616 171.585 45.616ZM156.225 35.536H161.057L158.497 30.48L156.225 35.536ZM177.115 29.232C177.115 30 177.307 30.6827 177.691 31.28C178.096 31.8773 178.587 32.4 179.163 32.848C179.739 33.296 180.518 33.84 181.499 34.48C182.566 35.1627 183.419 35.76 184.059 36.272C184.699 36.784 185.243 37.4133 185.691 38.16C186.139 38.8853 186.363 39.728 186.363 40.688C186.363 41.7973 186.064 42.7893 185.467 43.664C184.87 44.5173 184.038 45.1893 182.971 45.68C181.926 46.1493 180.752 46.384 179.451 46.384C178.491 46.384 177.488 46.256 176.443 46C175.398 45.7227 174.694 45.424 174.331 45.104C174.224 45.0187 174.139 44.944 174.075 44.88C174.032 44.7947 174.011 44.6667 174.011 44.496L173.915 39.408V39.376C173.915 39.2907 173.968 39.248 174.075 39.248C174.182 39.2267 174.246 39.2587 174.267 39.344C174.907 40.6453 175.462 41.7013 175.931 42.512C176.422 43.3227 177.03 44.0373 177.755 44.656C178.502 45.2747 179.344 45.584 180.283 45.584C181.136 45.584 181.84 45.36 182.395 44.912C182.95 44.4427 183.227 43.6533 183.227 42.544C183.227 41.6053 183.014 40.784 182.587 40.08C182.182 39.376 181.68 38.7787 181.083 38.288C180.486 37.7973 179.664 37.2107 178.619 36.528C177.595 35.8667 176.795 35.3013 176.219 34.832C175.664 34.3627 175.184 33.7973 174.779 33.136C174.374 32.4747 174.171 31.696 174.171 30.8C174.171 29.6693 174.491 28.72 175.131 27.952C175.792 27.1627 176.635 26.5867 177.659 26.224C178.683 25.84 179.76 25.648 180.891 25.648C181.638 25.648 182.395 25.7227 183.163 25.872C183.931 26 184.55 26.16 185.019 26.352C185.211 26.4373 185.339 26.5333 185.403 26.64C185.467 26.7253 185.499 26.8427 185.499 26.992V31.696C185.499 31.76 185.446 31.8133 185.339 31.856C185.232 31.8773 185.168 31.856 185.147 31.792L184.891 31.184C184.358 29.84 183.728 28.6987 183.003 27.76C182.299 26.8213 181.307 26.352 180.027 26.352C179.174 26.352 178.47 26.5973 177.915 27.088C177.382 27.5787 177.115 28.2933 177.115 29.232ZM203.888 40.912C203.888 40.8693 203.93 40.848 204.016 40.848C204.08 40.848 204.133 40.8693 204.176 40.912C204.24 40.9333 204.272 40.9547 204.272 40.976C204.058 42.64 203.952 44.1547 203.952 45.52C203.952 45.6907 203.92 45.8187 203.856 45.904C203.792 45.968 203.664 46 203.472 46H189.328C189.264 46 189.232 45.936 189.232 45.808C189.232 45.68 189.264 45.616 189.328 45.616C190.01 45.616 190.501 45.5627 190.8 45.456C191.12 45.3493 191.333 45.1467 191.44 44.848C191.546 44.528 191.6 44.048 191.6 43.408V28.592C191.6 27.952 191.546 27.4827 191.44 27.184C191.333 26.8853 191.12 26.6827 190.8 26.576C190.48 26.448 189.989 26.384 189.328 26.384C189.264 26.384 189.232 26.32 189.232 26.192C189.232 26.064 189.264 26 189.328 26H202.896C203.109 26 203.216 26.096 203.216 26.288L203.28 30.544C203.28 30.5867 203.216 30.6187 203.088 30.64C202.981 30.6613 202.917 30.64 202.896 30.576C202.554 29.3387 201.978 28.4213 201.168 27.824C200.357 27.2267 199.29 26.928 197.968 26.928H197.008C196.368 26.928 195.898 27.0667 195.6 27.344C195.301 27.6213 195.152 28.048 195.152 28.624V35.152H197.808C199.045 35.152 199.994 34.9387 200.656 34.512C201.317 34.0853 201.648 33.488 201.648 32.72C201.648 32.656 201.701 32.624 201.808 32.624C201.936 32.624 202 32.656 202 32.72L201.968 35.6L202 37.136C202.042 37.8613 202.064 38.4373 202.064 38.864C202.064 38.9067 202 38.928 201.872 38.928C201.744 38.928 201.68 38.9067 201.68 38.864C201.68 37.9893 201.338 37.3067 200.656 36.816C199.994 36.304 199.034 36.048 197.776 36.048H195.152V43.28C195.152 43.8987 195.269 44.3573 195.504 44.656C195.738 44.9547 196.112 45.104 196.624 45.104H197.68C199.344 45.104 200.677 44.7627 201.68 44.08C202.682 43.3973 203.418 42.3413 203.888 40.912Z" fill="white"/>
</g>
<defs>
<filter id="filter0_d_634_84" x="1.42046" y="10.6136" width="206.851" height="43.8636" filterUnits="userSpaceOnUse" color-interpolation-filters="sRGB">
<feFlood flood-opacity="0" result="BackgroundImageFix"/>
<feColorMatrix in="SourceAlpha" type="matrix" values="0 0 0 0 0 0 0 0 0 0 0 0 0 0 0 0 0 0 127 0" result="hardAlpha"/>
<feOffset dy="4"/>
<feGaussianBlur stdDeviation="2"/>
<feComposite in2="hardAlpha" operator="out"/>
<feColorMatrix type="matrix" values="0 0 0 0 0 0 0 0 0 0 0 0 0 0 0 0 0 0 0.25 0"/>
<feBlend mode="normal" in2="BackgroundImageFix" result="effect1_dropShadow_634_84"/>
<feBlend mode="normal" in="SourceGraphic" in2="effect1_dropShadow_634_84" result="shape"/>
</filter>
</defs>
</svg>
